<?xml version="1.0"?>
<svg xmlns="http://www.w3.org/2000/svg" xmlns:xlink="http://www.w3.org/1999/xlink" xmlns:svgjs="http://svgjs.com/svgjs" version="1.1" width="512" height="512" x="0" y="0" viewBox="0 0 512 512" style="enable-background:new 0 0 512 512" xml:space="preserve" class=""><g><g xmlns="http://www.w3.org/2000/svg"><path d="m11.007 266.45c0 .184-.007.366-.007.55 0 94.335 53.324 176.202 131.466 217.143l348.31-146.946c6.64-22.24 10.224-45.798 10.224-70.197 0-135.31-109.69-245-245-245-90.27 0-169.125 48.828-211.628 121.505z" fill="#f6b52e" data-original="#00adf4" style="" class=""/><path d="m286.083 510.16c6.526-.799 12.976-1.844 19.333-3.146v-26.466h-19.333z" fill="#e80054" data-original="#e80054" style="" class=""/><path d="m186.738 273.935.615-.851-.43-.957c-1.403-3.125-2.273-6.754-2.585-10.785-.032-.407-.093-.808-.169-1.205-27.059 9.303-60.203 10.669-86.124-19.798-.611.489-1.262.942-1.97 1.33l-64.261 35.183c-.763.418-1.55.745-2.35 1.005 22.985 36.146 61.551 76.073 120.284 77.751 6.59-29.23 19.057-56.895 36.99-81.673z" fill="#e80054" data-original="#e80054" style="" class=""/><path d="m187.353 273.084-.43-.957c-1.403-3.125-2.273-6.754-2.585-10.785-.032-.407-.093-.808-.169-1.205-18.481 6.354-39.799 8.996-59.717.332l-.006.003s26.395 57.378-29.782 80.77c15.964 8.346 34.249 13.77 55.084 14.365 6.589-29.229 19.056-56.894 36.989-81.672z" fill="#ce0658" data-original="#ce0658" style="" class=""/><path d="m414.622 255.395-3.282 1.226c-.846 1.438-1.366 3.046-1.495 4.721-.312 4.031-1.182 7.66-2.585 10.785l-.43.957.615.851c27.698 38.269 42.377 83.444 42.453 130.638l.002 1.585 1.57.211c1.752.236 3.309 1.042 4.5 2.211 15.24-21.487 27.09-45.542 34.805-71.382-33.617-58.087-76.153-81.803-76.153-81.803z" fill="#e80054" data-original="#e80054" style="" class=""/><path d="m482.941 324.49c-32.032-48.86-68.32-69.096-68.32-69.096l-3.282 1.226c-.846 1.438-1.366 3.046-1.495 4.721-.312 4.031-1.182 7.66-2.585 10.785l-.43.957.615.851c17.389 24.026 29.643 50.774 36.378 79.034.364-1.119.678-2.311.923-3.6 6.8-35.769 38.196-24.878 38.196-24.878z" fill="#ce0658" data-original="#ce0658" style="" class=""/><path d="m297.091 383.246v-47.737c-1.597-.009-3.007-.829-3.775-2.201-3.147-5.625-10.75-12.875-28.895-17.817v67.756h32.67z" fill="#b8e9fa" data-original="#b8e9fa" style="" class=""/><g><path d="m264.421 481.611c0 11.45-6.482 22.029-16.851 26.886-2.419 1.133-4.869 2.118-7.338 2.983 5.215.332 10.469.52 15.768.52 11.78 0 23.361-.85 34.697-2.457 4.086-8.134 6.394-17.458 6.394-27.932v-9.087h-32.671v9.087z" fill="#b8e9fa" data-original="#b8e9fa" style="" class=""/></g><path d="m143.785 406.287h89.148c.871-12.847 11.573-23.041 24.638-23.041h8.666v-67.243c-3.714-1.085-7.891-2.074-12.602-2.923-25.715-4.636-33.012-14.164-35.072-19.431-1.51-3.858-5.092-6.534-9.35-6.985-8.419-.893-18.321-4.464-22.712-15.499-28.408 38.491-44.034 85.309-44.034 133.769v1.471c.429-.072.867-.118 1.318-.118z" fill="#ff4155" data-original="#ff4155" style="" class=""/><path d="m143.785 406.287h89.148c.871-12.847 11.573-23.041 24.638-23.041h8.666v-67.243c-3.714-1.085-7.891-2.074-12.602-2.923-25.715-4.636-33.012-14.164-35.072-19.431-1.51-3.858-5.092-6.534-9.35-6.985-8.419-.893-18.321-4.464-22.712-15.499-28.408 38.491-44.034 85.309-44.034 133.769v1.471c.429-.072.867-.118 1.318-.118z" fill="#ff4155" data-original="#ff4155" style="" class=""/><path d="m204.351 404.934c0-35.311 8.305-69.745 23.798-100.726-5.948-3.81-8.499-7.778-9.587-10.559-1.51-3.858-5.092-6.534-9.35-6.985-8.419-.893-18.321-4.464-22.712-15.499-28.408 38.491-44.034 85.309-44.034 133.769v1.471c.43-.072.869-.118 1.319-.118h60.566z" fill="#e80054" data-original="#e80054" style="" class=""/><path d="m232.933 449.483h-89.148c-.45 0-.889-.047-1.319-.118v34.779c30.802 16.138 65.456 25.917 102.229 27.587 1.224-.499 2.441-1.025 3.645-1.59 10.872-5.093 17.896-16.292 17.896-28.53v-9.087h-8.666c-13.064 0-23.767-10.194-24.637-23.041z" fill="#ff4155" data-original="#ff4155" style="" class=""/><path d="m204.351 480.981v-31.499h-60.566c-.45 0-.889-.047-1.319-.118v34.779c23.103 12.104 48.372 20.631 75.077 24.842-8.038-6.651-13.192-16.711-13.192-28.004z" fill="#e80054" data-original="#e80054" style="" class=""/><path d="m329.762 383.246v-67.756c-18.145 4.942-25.748 12.193-28.895 17.817-.768 1.372-2.178 2.192-3.775 2.201v47.737h32.67z" fill="#e6f8fc" data-original="#e6f8fc" style="" class=""/><path d="m329.762 481.611v-9.087h-32.671v9.087c0 9.632 1.941 18.301 5.431 25.958 11.188-2.151 22.11-5.052 32.701-8.669-3.491-4.963-5.461-10.991-5.461-17.289z" fill="#e6f8fc" data-original="#e6f8fc" style="" class=""/><path d="m451.717 406.405v-1.471c0-48.46-15.626-95.279-44.034-133.769-4.391 11.035-14.292 14.606-22.712 15.499-4.257.451-7.84 3.127-9.349 6.985-2.061 5.267-9.358 14.794-35.072 19.431-4.712.85-8.888 1.838-12.603 2.923v67.243h8.44c13.065 0 23.767 10.194 24.637 23.041h89.374c.45 0 .889.046 1.319.118z" fill="#ff4155" data-original="#ff4155" style="" class=""/><path d="m361.025 449.483c-.871 12.847-11.573 23.041-24.637 23.041h-8.44v9.087c0 6.513 2.005 12.721 5.506 17.882 32.149-10.705 61.331-27.892 86.007-50.01z" fill="#ff4155" data-original="#ff4155" style="" class=""/><path d="m450.398 404.472h-306.614c-5.406 0-9.789 4.383-9.789 9.789v27.249c0 5.406 4.383 9.789 9.789 9.789h273.63c14.915-13.073 28.224-27.928 39.606-44.232-1.744-1.607-4.065-2.595-6.622-2.595z" fill="#cb3836" data-original="#cb3836" style="" class=""/><path d="m200.857 441.509v-27.249c0-5.406 4.383-9.789 9.789-9.789h-66.862c-5.406 0-9.789 4.383-9.789 9.789v27.249c0 5.406 4.383 9.789 9.789 9.789h66.862c-5.406 0-9.789-4.383-9.789-9.789z" fill="#a52b2b" data-original="#a52b2b" style="" class=""/><path d="m12.689 241.111 63.322-34.669c.331-.181.669-.336 1.008-.487-.081-1.734-.527-3.473-1.407-5.099-.03-.055-.06-.111-.091-.166-1.778-3.206-2.134-7.012-1.236-10.566l7.694-30.429c1.925-7.614-2.446-15.495-10.136-17.785-7.026-2.092-14.509 1.521-17.669 8.136l-1.571 3.29c-.56 1.172-2.213 1.216-2.835.075l-5.396-9.907c-17.051 29.156-28.251 62.147-31.985 97.37.102.077.198.164.302.237z" fill="#ff4155" data-original="#ff4155" style="" class=""/><path d="m41.955 218.182c-16.939-6.751-17.968-29.146-17.998-29.917-5.698 16.794-9.639 34.4-11.569 52.609.102.076.197.163.302.236l33.41-18.291c-.561-2.064-2.054-3.803-4.145-4.637z" fill="#e80054" data-original="#e80054" style="" class=""/><path d="m94.657 209.474c-3.628-6.627-12.019-9.08-18.646-5.452l-63.378 34.7c-1.046 9.102-1.606 18.351-1.627 27.729l3.372 6.159c3.628 6.627 12.019 9.08 18.646 5.452l64.26-35.183c6.627-3.628 9.08-12.019 5.452-18.646z" fill="#e6f8fc" data-original="#e6f8fc" style="" class=""/><path d="m94.657 209.474c-3.628-6.627-12.019-9.08-18.646-5.452l-63.378 34.7c-1.046 9.102-1.606 18.351-1.627 27.729l3.372 6.159c3.628 6.627 12.019 9.08 18.646 5.452l64.26-35.183c6.627-3.628 9.08-12.019 5.452-18.646z" fill="#e6f8fc" data-original="#e6f8fc" style="" class=""/><path d="m69.334 258.181c-22.737-6.311-24.03-23.708-23.021-32.799.182-1.637-.234-3.209-1.081-4.509l-32.599 17.848c-1.046 9.102-1.606 18.351-1.627 27.729l3.372 6.159c3.628 6.627 12.019 9.08 18.646 5.452z" fill="#b8e9fa" data-original="#b8e9fa" style="" class=""/><g><path d="m336.387 473.734h-78.817c-14.322 0-25.933-11.61-25.933-25.933v-39.833c0-14.322 11.611-25.933 25.933-25.933h78.817c14.322 0 25.933 11.611 25.933 25.933v39.833c0 14.323-11.611 25.933-25.933 25.933z" fill="#fdca00" data-original="#fdca00" style=""/></g><path d="m421.432 221.678c-.684-1.411-1.001-2.974-.933-4.54.307-7.039.055-28.575-11.731-54.91-8.121-18.148-14.831-36.881-19.793-56.09-.271-.041-.544-.097-.818-.173-59.284-16.53-121.96-16.53-181.244 0-.582.162-1.162.242-1.728.249-4.962 19.186-11.666 37.898-19.777 56.026-11.78 26.329-12.032 47.859-11.726 54.897.068 1.566-.248 3.129-.932 4.54-8.156 16.825 1.625 28.885 6.809 33.718 1.708 1.592 2.787 3.76 2.967 6.088 1.64 21.175 17.217 26.003 26.492 26.986 3.492.371 6.571 2.571 7.85 5.841 2.43 6.209 10.452 15.87 36.441 20.557 26.265 4.736 35.278 13.709 38.421 19.327 2.333 4.17 8.424 4.177 10.752.005 3.132-5.613 12.097-14.591 38.388-19.332 25.988-4.686 34.011-14.348 36.441-20.557 1.28-3.27 4.358-5.471 7.85-5.841 9.275-.983 24.852-5.812 26.492-26.986.18-2.328 1.26-4.496 2.968-6.088 5.185-4.833 14.965-16.893 6.811-33.717z" fill="#b8e9fa" data-original="#b8e9fa" style="" class=""/><path d="m308.852 311.992c-8.546-3.735-21.941-13.037-17.118-33.72.53-2.274.155-4.666-.993-6.7-3.485-6.172-9.172-20.621 3.679-34.202 1.077-1.139 1.85-2.534 2.258-4.047.117-.434.254-.925.413-1.467v-138.285c-30.342.04-60.679 4.169-90.177 12.394-.582.162-1.162.242-1.728.249-4.962 19.186-11.666 37.898-19.777 56.026-11.78 26.329-12.032 47.859-11.726 54.897.068 1.566-.248 3.129-.932 4.54-8.156 16.825 1.625 28.885 6.809 33.718 1.708 1.592 2.787 3.76 2.967 6.088 1.64 21.175 17.217 26.003 26.492 26.986 3.492.371 6.571 2.571 7.85 5.841 2.43 6.209 10.452 15.87 36.441 20.557 26.265 4.736 35.278 13.709 38.421 19.327 2.333 4.17 8.424 4.177 10.752.005 1.739-3.116 5.281-7.269 12.581-11.158-.275-1.128-.428-2.171-.491-3.112-.232-3.504-2.503-6.53-5.721-7.937z" fill="#8adaf9" data-original="#8adaf9" style=""/><path d="m305.729 210.533c-4.801-4.691-12.475-4.691-17.276 0-4.794 4.684-11.672 9.808-20.855 12.99 3.686 12.817 15.491 22.197 29.493 22.197s25.807-9.38 29.493-22.197c-9.182-3.182-16.061-8.306-20.855-12.99z" fill="#ff4155" data-original="#ff4155" style="" class=""/><path d="m305.729 210.533c-4.439-4.337-11.329-4.655-16.138-.973.393.3.776.619 1.138.973 1.001.978 2.092 1.975 3.277 2.969 11.121 9.337 6.945 26.458-5.251 31.049 2.653.748 5.443 1.169 8.336 1.169 14.003 0 25.807-9.38 29.493-22.197-9.182-3.182-16.061-8.306-20.855-12.99z" fill="#e80054" data-original="#e80054" style="" class=""/><path d="m224.683 101.533c-5.509 24.8-12.723 65.644-5.641 84.71 4.607.069 10.023-1.327 16.247-5.264 24.835-15.71 47.907-11.095 61.803 2.8 13.895-13.895 36.967-18.51 61.803-2.8 6.224 3.937 11.639 5.333 16.247 5.264 7.101-19.117-.171-60.131-5.686-84.911-47.7-10.407-97.096-10.342-144.773.201z" fill="#fbbc8d" data-original="#fbbc8d" style=""/><path d="m266.684 171.115c.081-1.286-.094-2.591-.526-3.831-12.882-36.919 1.649-71.381 1.649-71.381l-1.519-.873c-13.956 1.298-27.852 3.462-41.604 6.503-5.509 24.8-12.723 65.644-5.641 84.71 4.607.069 10.023-1.327 16.247-5.264 11.029-6.977 21.708-9.938 31.394-9.864z" fill="#fca870" data-original="#fca870" style=""/><path d="m421.271 93.854c.652 0 1.296.034 1.933.093-14.585-61.616-76.213-101.432-129.911-92.765-52.445 8.465-77.033 56.96-82.313 68.826.156-.049.308-.105.467-.149 56.342-15.708 115.902-15.708 172.242 0 5.318 1.483 9.197 5.981 9.882 11.459l2.214 17.709 7.136 5.882c3.492-6.569 10.406-11.055 18.35-11.055z" fill="#ff4155" data-original="#ff4155" style="" class=""/><path d="m293.293 1.182c-52.445 8.465-77.033 56.96-82.313 68.826.156-.049.308-.105.467-.149 21.38-5.961 43.223-9.654 65.178-11.091 1.131-.827 1.875-2.096 2.062-3.5 6.402-48.172 52.192-52.702 52.192-52.702-12.503-2.801-25.253-3.375-37.586-1.384z" fill="#e80054" data-original="#e80054" style="" class=""/><path d="m396.601 99.704-2.31-18.476c-.719-5.753-4.823-10.511-10.407-12.068-56.467-15.744-116.165-15.744-172.631 0-5.584 1.557-9.688 6.315-10.407 12.068l-2.31 18.476c-.593 4.739 3.83 8.553 8.431 7.271 59.271-16.526 121.934-16.526 181.204 0 4.599 1.282 9.022-2.532 8.43-7.271z" fill="#e6f8fc" data-original="#e6f8fc" style="" class=""/><path d="m267.289 93.461c-9.934-20.907 3.382-31.204 8.896-34.402.49-.284.918-.649 1.28-1.068-22.304 1.398-44.498 5.114-66.213 11.169-5.584 1.557-9.688 6.315-10.407 12.068l-2.31 18.476c-.593 4.739 3.83 8.553 8.431 7.271 19.981-5.571 40.348-9.256 60.84-11.071.022-.833-.151-1.672-.517-2.443z" fill="#b8e9fa" data-original="#b8e9fa" style="" class=""/><circle cx="421.271" cy="114.623" fill="#e6f8fc" r="21.494" data-original="#e6f8fc" style="" class=""/><path d="m416.597 108.946c0-6.202 2.63-11.786 6.831-15.709-.71-.071-1.429-.108-2.158-.108-11.871 0-21.494 9.623-21.494 21.494s9.623 21.494 21.494 21.494c5.669 0 10.823-2.199 14.663-5.785-10.857-1.082-19.336-10.244-19.336-21.386z" fill="#b8e9fa" data-original="#b8e9fa" style="" class=""/><circle cx="299.977" cy="19.178" fill="#e80054" r="8.13" data-original="#e80054" style="" class=""/><ellipse cx="285.99" cy="32.49" fill="#e80054" rx="13.988" ry="13.988" transform="matrix(.707 -.707 .707 .707 60.79 211.741)" data-original="#e80054" style="" class=""/><path d="m296.908 382.036h-39.338c-14.322 0-25.933 11.611-25.933 25.933v39.833c0 14.322 11.611 25.933 25.933 25.933h39.564c-17.229-14.736 0-24.37 0-24.37v-42.959c-16.143-12.804-2.187-23.044-.226-24.37z" fill="#feac00" data-original="#feac00" style=""/><path d="m260.315 449.534h73.327c2.473 0 4.477-2.005 4.477-4.477v-34.343c0-2.473-2.004-4.477-4.477-4.477h-73.327c-2.473 0-4.477 2.005-4.477 4.477v34.343c0 2.472 2.004 4.477 4.477 4.477z" fill="#cb3836" data-original="#cb3836" style="" class=""/><path d="m333.642 406.236h-38c2.473 0 4.477 2.005 4.477 4.477v34.343c0 2.473-2.004 4.477-4.477 4.477h38c2.473 0 4.477-2.005 4.477-4.477v-34.343c0-2.472-2.004-4.477-4.477-4.477z" fill="#a52b2b" data-original="#a52b2b" style="" class=""/><path d="m268.656 415.785h-28.181c-6.683 0-12.1 5.417-12.1 12.1s5.417 12.1 12.1 12.1h28.181c6.683 0 12.1-5.417 12.1-12.1s-5.417-12.1-12.1-12.1z" fill="#fff442" data-original="#fff442" style=""/><path d="m395.47 176.035c-.312-1.154-1.823-1.442-2.559-.499-4.038 5.172-15.448 15.98-34.017 4.234-21.911-13.86-42.449-11.9-56.525-1.705-3.141 2.275-7.415 2.275-10.556 0-14.075-10.196-34.614-12.155-56.525 1.705-18.569 11.746-29.979.939-34.017-4.234-.736-.943-2.246-.657-2.558.498-7.33 27.098 17.005 51.851 49.848 51.851 19.22 0 32.215-8.609 39.882-16.098 4.802-4.69 12.481-4.705 17.281-.013 7.666 7.492 20.665 16.111 39.896 16.111 32.844-.001 57.178-24.753 49.85-51.85z" fill="#e6f8fc" data-original="#e6f8fc" style="" class=""/><path d="m280.553 218.232c-26.072-13.024-18.677-35.423-14.71-43.806.673-1.422.943-2.977.844-4.522-9.686-.074-20.367 2.886-31.399 9.865-18.563 11.742-29.971.946-34.013-4.229-.74-.947-2.254-.648-2.568.512-7.314 27.09 17.018 51.832 49.854 51.832 13.743 0 24.287-4.406 31.992-9.652z" fill="#b8e9fa" data-original="#b8e9fa" style="" class=""/></g></g></svg>
